 <svg version="1.0" xmlns="http://www.w3.org/2000/svg" width="700.000000pt" height="700.000000pt" viewBox="0 0 700.000000 700.000000" preserveAspectRatio="xMidYMid meet">
<metadata>
Created by potrace 1.12, written by Peter Selinger 2001-2015
</metadata>
<g transform="translate(0.000000,700.000000) scale(0.100000,-0.100000)" fill="#000000" stroke="none">
<path d="M2370 5726 c0 -41 3 -48 26 -56 14 -6 22 -14 19 -20 -10 -17 -42 -11
-56 10 -10 14 -34 24 -78 32 l-64 12 -39 -44 c-45 -52 -54 -79 -42 -122 8 -28
18 -34 84 -56 41 -14 90 -31 108 -38 48 -21 70 -17 87 14 9 15 24 41 35 57 11
17 25 42 31 58 6 15 14 27 19 27 4 0 13 14 20 30 15 35 36 42 111 38 51 -3 54
-5 57 -31 3 -26 2 -27 -17 -18 -11 6 -39 11 -63 11 -37 0 -48 -5 -66 -30 -12
-16 -22 -34 -22 -39 0 -5 -6 -16 -13 -23 -7 -7 -18 -24 -25 -38 -7 -14 -21
-38 -31 -55 -31 -48 -61 -110 -61 -126 0 -8 7 -23 15 -33 8 -11 15 -27 15 -36
0 -9 9 -25 19 -34 19 -17 22 -17 72 9 35 17 56 22 62 16 7 -7 1 -14 -16 -20
-32 -12 -31 -8 -11 -74 8 -29 22 -77 31 -107 9 -30 24 -81 35 -113 23 -73 23
-114 -2 -177 -25 -63 -25 -100 -2 -131 10 -13 22 -31 25 -39 4 -8 15 -27 25
-42 47 -73 155 -261 158 -276 4 -13 -8 -23 -44 -39 -28 -13 -54 -23 -58 -23
-5 -1 -27 -9 -49 -20 -22 -11 -46 -19 -53 -20 -8 0 -27 -8 -43 -17 -29 -17
-30 -17 -107 23 -83 44 -89 54 -91 135 -1 30 -10 63 -27 94 -15 26 -30 61 -33
79 -9 40 -30 40 -56 -1 -11 -18 -28 -35 -38 -38 -9 -4 -31 -18 -48 -32 -16
-14 -45 -29 -62 -32 -28 -6 -32 -11 -35 -45 -4 -46 12 -66 80 -103 50 -27 58
-40 108 -163 12 -30 28 -68 36 -83 8 -16 14 -33 14 -39 0 -5 6 -24 14 -41 29
-62 46 -110 46 -125 0 -8 -20 -56 -44 -106 -81 -168 -136 -285 -136 -291 0 -3
9 -5 19 -5 20 0 43 25 101 110 68 99 162 221 204 265 l43 45 80 0 c45 0 109 7
142 16 33 8 82 14 108 12 l48 -3 3 -172 c2 -163 1 -172 -17 -178 -26 -8 -83
-73 -76 -86 10 -15 161 -11 174 5 6 7 16 78 22 157 5 79 12 150 14 157 9 25
62 10 145 -41 97 -60 105 -72 129 -195 15 -76 20 -87 39 -90 22 -3 22 -2 22
133 0 147 -2 155 -64 244 -18 25 -42 63 -54 83 l-23 37 21 84 c11 47 20 98 20
115 0 28 17 70 92 234 39 84 29 80 308 128 69 12 154 28 190 36 97 19 158 26
180 19 11 -4 28 -23 38 -43 24 -48 99 -187 125 -232 25 -42 31 -48 132 -130
44 -35 85 -69 91 -75 6 -5 57 -48 114 -95 179 -147 164 -124 168 -255 l4 -112
-30 -22 c-17 -11 -35 -21 -41 -21 -6 0 -18 -12 -28 -26 -29 -45 -10 -57 91
-59 97 -2 106 3 106 67 0 47 15 58 82 58 52 0 58 2 62 23 11 51 26 200 31 317
l6 125 -46 60 c-26 33 -50 62 -54 65 -4 3 -34 39 -66 80 -33 41 -75 93 -95
116 -19 22 -47 54 -62 71 -31 36 -142 244 -152 286 -6 24 -3 27 17 27 13 0 28
-5 34 -11 17 -17 52 -1 59 28 9 33 0 41 -190 168 l-160 107 -165 9 c-92 5
-184 11 -206 14 -22 2 -175 9 -340 15 -322 12 -348 16 -450 70 -107 57 -120
68 -139 112 -38 90 -58 136 -109 248 -36 78 -184 221 -247 239 -25 7 -76 21
-115 32 -38 12 -89 23 -112 26 l-43 5 0 -46z m358 -197 c2 -45 -2 -70 -12 -84
-14 -18 -15 -13 -16 68 0 67 3 88 13 85 7 -3 13 -29 15 -69z m-33 -165 c-5
-63 -10 -74 -30 -74 -12 0 -13 10 -8 48 12 93 47 117 38 26z m-66 -105 c-19
-12 -39 -11 -39 1 0 15 44 30 49 18 2 -6 -3 -14 -10 -19z m1981 -824 c0 -8 -4
-15 -10 -15 -5 0 -10 7 -10 15 0 8 5 15 10 15 6 0 10 -7 10 -15z m40 -61 c0
-8 -4 -14 -10 -14 -5 0 -10 9 -10 21 0 11 5 17 10 14 6 -3 10 -13 10 -21z
m-1310 -36 c0 -27 -46 -129 -62 -139 -14 -9 -79 -1 -144 17 -58 16 -72 39 -51
83 9 19 23 28 52 33 193 34 205 34 205 6z m1347 -18 c3 -11 10 -20 15 -20 5 0
14 -13 19 -30 6 -16 15 -30 20 -30 5 0 13 -8 17 -18 7 -17 81 -132 92 -142 3
-3 15 -19 28 -37 20 -29 22 -44 22 -145 0 -157 -8 -216 -32 -229 -29 -16 -33
11 -20 163 12 151 13 148 -43 243 -19 33 -38 67 -42 75 -4 8 -22 36 -40 62
-18 26 -33 56 -33 67 0 10 -7 21 -15 25 -17 6 -21 36 -4 36 6 0 13 -9 16 -20z"></path>
<path d="M2077 5693 c-12 -12 -7 -53 6 -53 19 0 50 37 42 49 -7 12 -38 15 -48
4z"></path>
<path d="M837 5553 c-9 -8 -9 -256 -1 -277 4 -11 19 -16 45 -16 44 0 50 10 17
25 -30 13 -37 78 -12 106 16 18 16 20 1 37 -10 10 -17 35 -17 56 0 32 4 38 30
47 16 6 27 15 24 20 -6 10 -77 12 -87 2z"></path>
<path d="M1067 5542 c-28 -31 -21 -80 16 -126 46 -55 59 -83 52 -105 -12 -40
-48 -31 -57 14 -4 25 -22 22 -26 -4 -9 -59 63 -84 106 -38 36 38 29 63 -40
150 -21 27 -38 58 -38 68 0 29 28 35 54 10 42 -39 64 -18 27 27 -23 27 -71 29
-94 4z"></path>
<path d="M1295 5551 c-3 -6 4 -15 15 -21 18 -10 20 -20 20 -128 0 -116 8 -151
29 -138 7 5 11 51 11 132 0 124 0 125 26 134 14 6 22 14 19 20 -8 13 -112 13
-120 1z"></path>
<path d="M5418 5529 c-35 -61 -16 -139 33 -139 24 0 24 4 -2 39 -31 42 -5 113
36 97 18 -6 21 -96 5 -112 -8 -8 -8 -19 0 -38 25 -66 4 -106 -41 -79 -35 21
-49 10 -24 -17 11 -12 31 -20 51 -20 49 0 64 35 64 150 0 118 -15 150 -68 150
-31 0 -40 -5 -54 -31z"></path>
<path d="M5586 5551 c-7 -10 17 -21 45 -21 11 0 22 -7 26 -15 5 -15 -14 -90
-43 -168 -18 -47 -18 -90 -2 -85 14 5 56 110 57 143 1 11 7 32 15 47 13 25 20
63 17 96 -1 14 -107 17 -115 3z"></path>
<path d="M5762 5540 c-13 -13 -22 -31 -20 -43 3 -23 28 -36 28 -15 0 28 25 51
48 44 17 -6 22 -15 22 -40 0 -19 -7 -39 -15 -46 -8 -7 -15 -19 -15 -27 0 -7 7
-16 15 -19 11 -4 15 -21 15 -55 0 -46 -2 -49 -26 -49 -19 0 -28 7 -35 30 -11
31 -23 38 -34 19 -12 -19 4 -54 33 -71 27 -16 31 -16 63 1 29 16 34 24 37 60
2 24 -2 49 -8 56 -9 11 -9 27 1 66 11 43 11 54 -2 77 -20 36 -74 42 -107 12z"></path>
<path d="M5278 5529 c-23 -25 -23 -32 3 -55 19 -17 20 -27 16 -94 -3 -41 -8
-85 -12 -97 -7 -21 -4 -23 35 -23 37 0 41 2 34 18 -5 9 -11 73 -14 142 -5 116
-6 125 -25 127 -11 1 -28 -7 -37 -18z"></path>
<path d="M1544 5306 c-7 -20 2 -46 16 -46 13 0 13 47 0 55 -6 3 -13 -1 -16 -9z"></path>
<path d="M3963 2988 c-14 -17 -31 -234 -43 -543 -5 -137 -14 -297 -19 -355 -6
-58 -11 -206 -13 -330 l-3 -225 78 -9 c56 -7 81 -6 89 2 14 14 37 248 38 384
0 53 3 103 6 112 9 23 31 19 37 -6 3 -13 17 -54 32 -93 57 -155 66 -181 72
-205 3 -14 9 -29 13 -35 5 -5 21 -47 36 -91 26 -79 28 -82 63 -88 55 -9 149
-7 156 3 3 5 -1 25 -9 43 -29 66 -86 214 -86 223 -1 6 -9 28 -20 50 -11 22
-20 47 -20 55 0 8 -7 24 -15 34 -8 11 -15 26 -15 34 0 8 -7 28 -15 45 -8 18
-21 53 -28 78 -14 46 -14 47 24 115 21 38 43 78 48 89 5 11 22 43 38 70 16 28
49 86 73 130 24 44 48 88 54 97 16 26 -1 35 -79 41 -76 7 -92 1 -116 -45 -8
-15 -39 -76 -70 -135 -134 -259 -137 -263 -159 -263 -10 0 -11 16 -6 68 9 105
24 370 31 559 7 198 13 186 -96 197 -49 5 -68 4 -76 -6z"></path>
<path d="M4805 2930 c-8 -12 -18 -83 -35 -240 -6 -52 -17 -153 -25 -225 -15
-125 -21 -181 -45 -415 -6 -58 -17 -157 -25 -220 -28 -222 -37 -343 -25 -350
14 -8 161 -21 171 -15 7 5 32 178 48 330 14 140 28 268 46 420 15 124 20 175
45 415 6 58 16 140 22 183 14 105 15 104 -124 122 -29 4 -49 2 -53 -5z"></path>
<path d="M5312 2912 c-51 -40 -70 -144 -34 -188 21 -27 74 -54 104 -54 28 0
83 33 96 57 16 30 23 96 14 128 -17 60 -129 96 -180 57z"></path>
<path d="M1105 2664 c-29 -6 -163 -43 -216 -60 -26 -8 -54 -14 -62 -14 -9 0
-36 -6 -59 -14 -24 -8 -55 -17 -70 -20 -23 -5 -28 -12 -28 -37 0 -17 5 -40 11
-51 7 -12 18 -49 26 -82 18 -80 48 -194 83 -326 10 -36 25 -94 35 -130 9 -36
24 -94 34 -130 22 -77 39 -142 51 -190 4 -19 18 -71 30 -115 11 -44 30 -113
40 -153 26 -102 42 -125 83 -117 56 12 129 40 134 51 2 6 -3 40 -12 75 -9 35
-23 89 -30 119 -26 101 -38 145 -56 209 -11 35 -19 72 -19 81 0 10 -7 34 -16
55 -8 20 -14 44 -12 52 3 16 133 63 172 63 39 0 60 23 52 56 -4 16 -10 43 -13
61 -8 48 -23 56 -74 39 -24 -8 -65 -20 -90 -25 -25 -6 -53 -13 -62 -16 -22 -9
-46 31 -62 102 -7 32 -23 92 -34 133 -12 41 -24 96 -28 121 l-5 46 70 22 c39
11 76 21 83 21 7 0 41 10 76 21 l63 22 -6 41 c-12 82 -32 102 -89 90z"></path>
<path d="M3375 2651 c-44 -11 -74 -28 -129 -74 -50 -42 -65 -40 -66 9 0 35
-23 45 -92 42 l-63 -3 0 -230 c1 -331 16 -840 26 -856 10 -16 146 -14 167 3
11 9 12 93 6 450 l-7 438 24 26 c55 59 112 69 159 27 l30 -28 9 -448 c6 -305
12 -452 20 -460 13 -13 161 -11 175 3 5 5 6 204 3 457 -4 395 -7 454 -23 498
-24 69 -41 93 -86 121 -42 27 -106 37 -153 25z"></path>
<path d="M2382 2595 c-151 -30 -231 -146 -208 -300 9 -59 33 -72 108 -59 l53
9 6 79 c5 73 8 81 37 107 32 29 78 38 117 23 32 -13 56 -81 62 -183 l6 -97
-28 -22 c-15 -12 -32 -22 -37 -22 -22 0 -181 -115 -212 -154 -64 -79 -77 -117
-77 -225 0 -87 3 -105 28 -157 19 -39 42 -70 71 -91 40 -30 50 -33 115 -33 80
0 127 19 184 72 32 31 53 31 53 -1 0 -33 22 -41 86 -33 l59 7 -3 110 c-2 61
-8 148 -13 195 -4 47 -13 144 -19 215 -37 458 -60 526 -191 560 -64 17 -111
17 -197 0z m202 -597 c3 -13 6 -57 7 -98 1 -41 4 -102 8 -135 9 -86 -1 -110
-56 -131 -44 -17 -47 -17 -82 2 -28 15 -40 30 -53 69 -21 64 -21 85 -3 149 17
57 62 118 109 147 41 25 62 24 70 -3z"></path>
<path d="M1776 2520 c-34 -11 -73 -45 -92 -82 -19 -37 -28 -35 -55 8 -22 36
-23 36 -77 31 -30 -3 -59 -10 -65 -16 -12 -12 -11 -15 63 -456 6 -33 15 -91
21 -130 5 -38 17 -100 25 -136 8 -37 14 -80 14 -96 0 -17 9 -72 20 -124 11
-52 20 -104 20 -117 0 -12 7 -25 16 -29 18 -7 172 26 180 39 3 4 -1 39 -10 76
-14 63 -25 131 -47 282 -6 36 -14 86 -20 111 -6 26 -17 91 -24 145 -8 55 -19
119 -24 144 -6 25 -10 72 -11 106 0 51 4 64 23 82 57 54 101 15 122 -108 l11
-65 46 2 c25 0 56 6 68 13 22 12 22 16 18 109 -5 97 -21 145 -60 185 -34 34
-99 44 -162 26z"></path>
<path d="M5233 2508 c-6 -7 -13 -40 -17 -73 -4 -33 -13 -98 -22 -145 -21 -123
-56 -340 -75 -475 -6 -38 -16 -104 -24 -145 -20 -108 -33 -213 -28 -227 7 -17
68 -35 127 -37 l51 -1 12 50 c8 28 20 95 28 150 28 195 36 251 50 325 8 41 18
107 24 145 17 116 31 205 48 302 20 111 17 117 -71 132 -80 14 -91 14 -103 -1z"></path>
<path d="M5752 2426 c-13 -16 -37 -97 -62 -201 -12 -49 -28 -112 -35 -140 -27
-97 -48 -180 -56 -220 -4 -22 -13 -60 -20 -85 -55 -208 -65 -247 -85 -340 -13
-60 -13 -66 3 -78 18 -13 61 -26 125 -36 l36 -7 17 52 c10 28 24 79 32 113 27
116 59 247 83 336 35 131 41 156 55 215 35 153 36 155 80 181 57 33 99 31 136
-5 17 -18 29 -40 29 -55 0 -27 -29 -152 -55 -240 -8 -26 -15 -55 -15 -63 0 -9
-6 -36 -14 -62 -13 -42 -33 -116 -71 -271 -7 -30 -23 -90 -34 -132 -30 -109
-29 -115 22 -137 105 -45 149 -31 162 50 3 24 12 64 20 89 8 25 23 86 35 135
11 50 27 113 35 140 12 45 31 122 70 275 26 102 45 195 45 216 0 11 -7 43 -16
70 -40 124 -194 170 -329 98 -26 -13 -51 -22 -56 -19 -5 4 -9 26 -9 51 0 27
-5 46 -12 48 -7 2 -34 11 -60 19 -35 10 -50 11 -56 3z"></path>
<path d="M2230 1171 c0 -6 5 -13 10 -16 6 -3 10 -50 10 -104 0 -78 -3 -101
-16 -112 -14 -12 -14 -14 3 -20 25 -10 65 -10 82 0 11 7 10 12 -6 28 -14 14
-19 32 -18 71 1 60 16 82 40 62 8 -7 15 -18 15 -24 1 -6 11 -24 24 -39 27 -33
56 -33 71 1 5 12 13 22 18 22 4 0 12 12 17 26 7 16 16 24 28 22 26 -5 31 -127
5 -146 -16 -11 -16 -14 -3 -22 20 -13 71 -12 90 0 13 9 13 12 -2 21 -15 8 -18
25 -18 110 0 79 3 101 15 105 28 11 15 24 -23 24 -38 0 -82 -31 -82 -57 0 -5
-9 -18 -20 -28 -11 -10 -20 -24 -20 -32 0 -7 -11 -13 -25 -13 -20 0 -32 11
-53 47 -41 70 -57 83 -102 83 -22 0 -40 -4 -40 -9z"></path>
<path d="M3796 1129 l-29 -30 22 -15 c18 -13 21 -25 21 -79 0 -83 27 -111 84
-89 25 9 19 22 -11 26 -28 3 -28 4 -28 73 0 69 0 70 28 73 34 4 35 20 2 28
-14 3 -30 15 -36 25 -13 25 -19 24 -53 -12z"></path>
<path d="M2751 1111 c-25 -3 -46 -11 -48 -18 -3 -9 9 -11 46 -6 72 8 81 -2 74
-87 -5 -62 -4 -69 16 -79 22 -12 61 -6 61 9 0 4 -7 10 -15 14 -11 4 -15 22
-15 70 0 62 -14 96 -40 96 -5 0 -14 2 -22 3 -7 2 -33 1 -57 -2z"></path>
<path d="M3290 1113 c-46 -20 -80 -61 -80 -97 0 -49 7 -63 45 -86 27 -17 43
-19 89 -14 65 8 65 24 0 24 -25 0 -54 5 -64 10 -27 15 -35 71 -16 109 14 27
22 31 56 31 21 0 51 -5 65 -12 30 -13 45 -3 24 17 -16 16 -95 28 -119 18z"></path>
<path d="M3545 1104 c-54 -28 -75 -54 -75 -95 0 -38 13 -57 54 -85 30 -19 120
-12 149 12 34 29 37 36 37 81 0 81 -88 127 -165 87z m91 -22 c34 -22 43 -79
18 -117 -13 -20 -25 -25 -58 -25 -51 0 -60 6 -74 48 -9 27 -8 39 5 67 15 32
21 35 57 35 23 0 46 -4 52 -8z"></path>
<path d="M4065 1112 c-74 -27 -103 -65 -90 -121 10 -44 61 -84 98 -77 16 3 42
6 58 6 16 0 29 5 29 10 0 6 -24 10 -52 10 -74 0 -78 5 -75 81 l3 64 47 3 c51
3 71 -14 47 -43 -13 -15 -13 -15 34 -29 8 -3 20 1 26 9 35 42 -62 109 -125 87z"></path>
<path d="M4383 1114 c-18 -8 -16 -21 5 -27 9 -2 25 -8 35 -12 16 -7 18 -4 15
16 -3 24 -28 34 -55 23z"></path>
<path d="M4570 1111 c-32 -4 -46 -11 -48 -23 -4 -19 13 -25 23 -8 7 11 64 13
90 4 13 -6 15 -17 9 -73 -5 -56 -3 -70 11 -84 18 -19 33 -21 55 -7 12 8 12 11
-3 28 -12 13 -17 36 -17 73 0 30 -4 59 -8 65 -8 13 -47 35 -59 32 -4 0 -28 -4
-53 -7z"></path>
<path d="M2986 1094 c-10 -9 -16 -28 -14 -43 2 -21 10 -28 43 -36 51 -13 89
-40 82 -58 -7 -18 -56 -28 -79 -16 -25 14 -48 11 -48 -6 0 -17 4 -18 85 -15
63 2 95 19 95 50 0 24 -21 39 -57 43 -41 5 -87 42 -79 63 5 14 16 16 62 11 40
-4 54 -2 51 6 -2 7 -29 13 -64 15 -46 2 -65 -1 -77 -14z"></path>
<path d="M4273 1092 c23 -25 23 -119 0 -144 -20 -22 -15 -27 28 -34 45 -6 68
8 50 30 -10 12 -12 36 -8 81 5 72 -4 85 -59 85 -26 0 -26 -1 -11 -18z"></path>
<path d="M2687 992 c-40 -44 1 -87 72 -76 50 8 54 24 6 24 -38 0 -55 21 -36
44 23 28 -17 36 -42 8z"></path>
<path d="M4506 991 c-38 -42 7 -87 75 -76 44 8 43 25 -2 25 -32 0 -49 24 -30
43 16 16 14 27 -7 27 -11 0 -27 -9 -36 -19z"></path>
</g>
</svg>