 <svg version="1.0" xmlns="http://www.w3.org/2000/svg" width="700.000000pt" height="692.000000pt" viewBox="0 0 700.000000 692.000000" preserveAspectRatio="xMidYMid meet">
<metadata>
Created by potrace 1.12, written by Peter Selinger 2001-2015
</metadata>
<g transform="translate(0.000000,692.000000) scale(0.100000,-0.100000)" fill="#000000" stroke="none">
<path d="M2688 6071 c-218 -70 -476 -295 -653 -569 -65 -102 -149 -280 -182
-387 -25 -84 -27 -102 -27 -270 -1 -198 12 -274 74 -432 97 -254 308 -458 526
-509 97 -23 236 -15 326 19 274 101 475 379 533 740 25 155 18 489 -16 747
-46 352 -154 575 -314 651 -50 24 -73 29 -135 28 -43 0 -99 -8 -132 -18z"></path>
<path d="M4045 6061 c-188 -89 -294 -357 -335 -846 -15 -178 -12 -445 5 -552
58 -361 259 -639 533 -740 89 -34 229 -42 326 -19 219 52 428 254 526 509 62
158 75 234 74 432 0 168 -2 186 -27 270 -112 365 -408 741 -710 900 -158 84
-283 98 -392 46z"></path>
<path d="M1174 4492 c-74 -36 -122 -78 -184 -160 -90 -118 -163 -296 -199
-485 -78 -408 6 -726 262 -993 233 -244 530 -319 774 -195 221 112 350 406
314 717 -18 153 -52 258 -145 449 -170 344 -350 566 -536 658 -53 27 -78 33
-145 35 -71 3 -87 0 -141 -26z"></path>
<path d="M5570 4497 c-201 -84 -398 -322 -580 -699 -115 -239 -155 -430 -131
-625 45 -365 274 -587 591 -571 178 9 348 95 497 252 256 267 340 585 262 993
-59 309 -203 556 -376 643 -70 36 -187 39 -263 7z"></path>
<path d="M3328 3805 c-302 -51 -553 -227 -730 -513 -152 -247 -302 -425 -510
-604 -224 -193 -323 -312 -408 -490 -108 -225 -120 -487 -32 -696 201 -479
860 -689 1508 -481 249 80 439 80 688 0 149 -48 287 -72 446 -78 562 -21 1014
263 1105 695 19 87 19 252 0 339 -58 275 -235 525 -520 733 -182 133 -336 311
-430 500 -165 331 -440 540 -780 595 -108 18 -232 18 -337 0z"></path>
</g>
</svg>